<?xml version="1.0" encoding="UTF-8" standalone="no"?>
<!-- Created with Inkscape (http://www.inkscape.org/) -->

<svg
   width="372.91263mm"
   height="424.14124mm"
   viewBox="0 0 372.91263 424.14123"
   version="1.1"
   id="svg5"
   xmlns="http://www.w3.org/2000/svg"
   xmlns:svg="http://www.w3.org/2000/svg">
  <defs
     id="defs2">
    <filter
       style="color-interpolation-filters:sRGB"
       id="filter2987"
       x="-0.039813846"
       y="-0.040251423"
       width="1.0796278"
       height="1.0805027">
      <feColorMatrix
         values="1 0 0 0 0 0 1 0 0 0 0 0 1 0 0 0 0 0 1000 -500 "
         id="feColorMatrix2985" />
    </filter>
  </defs>
  <g
     id="layer1"
     transform="translate(2.4301592,8.5521594)">
    <path
       id="shape04"
       style="fill:#addf7b;fill-opacity:1;stroke:#000000;stroke-width:53.8129;stroke-linecap:square;stroke-linejoin:miter;stroke-dasharray:none;stroke-dashoffset:0;stroke-opacity:1;filter:url(#filter2987)"
       d="M 692.52894,9.0448383 C 523.05902,8.8244353 443.7875,195.58554 422.83819,233.49323 318.03097,229.42522 192.94072,208.43492 89.940895,332.59321 -12.228724,467.80222 103.22828,694.41972 149.95777,747.56838 86.574878,842.70951 -7.487084,1007.1509 85.468391,1159.7642 c 94.369829,140.7638 290.166669,107.2687 335.032619,105.9055 55.78408,96.6179 126.35259,219.9568 286.84424,226.9931 182.09038,-29.5543 228.99764,-163.8577 269.35013,-229.4246 108.66092,11.9248 251.44752,21.3728 347.35762,-122.8152 81.5218,-146.20151 -44.8624,-333.3569 -75.4771,-392.85395 55.7279,-87.33804 157.2349,-251.17491 68.1016,-399.6503 C 1218.8729,195.11926 1038.7397,232.19704 975.6432,235.71156 921.393,145.1798 865.58173,15.537793 692.52894,9.0448383 Z"
       transform="matrix(0.26458333,0,0,0.26458333,-0.96130864,4.8550976)" />
    <path
       id="shape10"
       fill="#ffffff"
       fill-rule="evenodd"
       stroke="#ffffff"
       stroke-width="2.37679"
       stroke-linecap="square"
       stroke-linejoin="bevel"
       d="m 59.018694,13.764972 c -6.63934,8.498641 8.568641,10.425856 5.700892,19.86863 -2.867773,9.442774 -15.885402,0.854042 -16.019034,10.251189 -0.133632,9.397147 11.986083,-0.643878 17.102927,7.995857 5.116868,8.639735 -9.672918,11.955847 -2.737387,18.445544 6.935508,6.489934 7.723188,-9.479442 16.979381,-5.244017 9.256074,4.235188 -0.350976,15.941218 9.578353,16.149237 9.929329,0.20802 1.88197,-11.857575 9.174039,-16.154079 7.292305,-4.296741 11.975555,11.423323 18.371915,4.789954 6.39637,-6.633132 -6.26508,-14.225131 -1.67747,-20.931952 4.58761,-6.70682 13.96013,3.002797 14.1725,-7.5792 0.21237,-10.581997 -9.85987,-0.89493 -14.13572,-11.035824 -4.27584,-10.140752 8.95488,-9.814864 2.85929,-17.4613 -6.09559,-7.6464587 -9.97247,9.439238 -17.67633,4.954324 C 93.008192,13.328421 100.4475,0.28319277 90.984721,0.01455236 81.522177,-0.25408764 91.272692,11.610783 80.485597,16.993431 69.698383,22.376103 65.658034,5.2663064 59.018694,13.764972 Z"
       style="fill:#000000;fill-opacity:1;stroke:#000000;stroke-opacity:1;filter:url(#filter2987)"
       transform="matrix(2.092721,0,0,2.092721,31.95964,67.459049)" />
    <ellipse
       id="ellipse67"
       transform="matrix(2.092721,-5.4035587e-4,5.4035587e-4,2.092721,31.95964,67.459049)"
       rx="18.893387"
       ry="18.687994"
       cx="89.608047"
       cy="40.633018"
       fill="#000000"
       fill-rule="evenodd"
       stroke="#ffffff"
       stroke-width="3.00887"
       stroke-linecap="square"
       stroke-linejoin="bevel"
       style="fill:#addf7b;fill-opacity:1;stroke:#addf7b;stroke-opacity:1;filter:url(#filter2987)" />
    <path
       id="shape021"
       fill="#ffffff"
       fill-rule="evenodd"
       stroke="#ffffff"
       stroke-width="1.88176"
       stroke-linecap="square"
       stroke-linejoin="bevel"
       d="m 11.901483,80.740976 c -2.0606255,8.286025 9.557531,4.776055 10.528528,12.528696 0.970979,7.752648 -11.211231,5.739494 -8.277929,12.577578 2.933302,6.83809 8.459429,-4.33026 14.945093,0.26723 6.485682,4.59748 -3.13947,11.76402 3.968032,14.22043 7.107562,2.4566 2.528107,-9.3447 10.586814,-9.26658 8.058544,0.078 4.886153,11.64013 12.133039,8.58902 7.246886,-3.0511 -2.462412,-9.18092 1.425096,-14.63887 3.887604,-5.458204 12.342652,4.39882 14.829008,-2.4601 2.486432,-6.858748 -9.116853,-8.266015 -7.962077,-14.594848 1.154777,-6.328832 11.062651,-2.329882 7.804249,-10.050108 -3.258402,-7.720226 -7.41814,2.53201 -13.779707,-3.42212 -6.361521,-5.954026 3.310578,-9.984372 -3.562537,-13.54804 C 47.66597,57.37958 50.371583,70.98413 43.354914,70.225088 36.338245,69.466046 37.511191,57.634565 30.582288,60.49133 c -6.928904,2.856765 3.947212,8.292286 -2.117313,15.662526 -6.064526,7.37024 -14.502873,-3.698921 -16.563492,4.58712 z"
       style="fill:#000000;fill-opacity:1;stroke:#000000;stroke-width:1.88155;stroke-dasharray:none;stroke-opacity:1;filter:url(#filter2987)"
       transform="matrix(2.092721,0,0,2.092721,31.95964,67.459049)" />
    <ellipse
       id="shape14"
       transform="matrix(1.9110942,-0.8527601,0.8527601,1.9110942,31.95964,67.459049)"
       rx="14.958302"
       ry="14.795688"
       cx="2.1885877"
       cy="99.843155"
       fill="#000000"
       fill-rule="evenodd"
       stroke="#ffffff"
       stroke-width="2.38219"
       stroke-linecap="square"
       stroke-linejoin="bevel"
       style="fill:#addf7b;fill-opacity:1;stroke:#addf7b;stroke-opacity:1;filter:url(#filter2987)" />
  </g>
</svg>
